<?xml version="1.0" encoding="utf-8"?>
<!-- Generator: Adobe Illustrator 23.0.1, SVG Export Plug-In . SVG Version: 6.00 Build 0)  -->
<svg version="1.1" id="Layer_1" xmlns="http://www.w3.org/2000/svg" xmlns:xlink="http://www.w3.org/1999/xlink" x="0px" y="0px"
	 viewBox="0 0 4000 4000" style="enable-background:new 0 0 4000 4000;" xml:space="preserve">
<style type="text/css">
	.st0{display:none;}
	.st1{display:inline;}
	.st2{fill:#0BCBFF;}
	.st3{fill:#74697C;}
	.st4{opacity:0.55;}
	.st5{fill:#FFFFFF;}
	.st6{opacity:0.1;}
	.st7{opacity:0.3;}
	.st8{fill:#232323;}
	.st9{fill:#665E6D;}
	.st10{fill:#41E049;}
	.st11{fill:#7D7AF4;}
	.st12{fill:#E8C534;}
	.st13{fill:#F4375B;}
	.st14{fill:#020202;}
	.st15{opacity:0.35;}
	.st16{fill-rule:evenodd;clip-rule:evenodd;fill:#22A7F0;}
	.st17{fill-rule:evenodd;clip-rule:evenodd;fill:#232323;}
	.st18{opacity:0.6;}
	.st19{fill-rule:evenodd;clip-rule:evenodd;fill:#FFFFFF;}
</style>
<g>
	<g class="st0">
		<g class="st1">
			<g>
				<rect class="st2" width="4000" height="4000"/>
			</g>
		</g>
	</g>
	<g>
		<g>
			<g>
				<g>
					<path class="st3" d="M1332.85,2038.01L1332.85,2038.01c-14.24-37.69-56.39-56.63-94.03-42.26l-158.91,60.68
						c-36.79,14.05-55.73,54.83-42.73,92l0.52,1.49"/>
				</g>
			</g>
			<g class="st4">
				<g>
					<path class="st5" d="M1332.85,2038.01l-5.59,2.12c-19.61-21.11-50.81-29.39-79.37-18.52l-158.9,60.69
						c-28.25,10.81-46,37.36-46.78,65.92l-4.5,1.71l-0.52-1.5c-12.99-37.15,5.95-77.93,42.74-92l158.9-60.69
						C1276.45,1981.4,1318.62,2000.34,1332.85,2038.01z"/>
				</g>
			</g>
			<g>
				<g>
					<path class="st3" d="M2777.14,2038.01L2777.14,2038.01c14.24-37.69,56.39-56.63,94.03-42.26l158.91,60.68
						c36.79,14.05,55.73,54.83,42.73,92l-0.52,1.49"/>
				</g>
			</g>
			<g class="st4">
				<g>
					<path class="st5" d="M3072.82,2148.43l-0.52,1.5l-5.85-2.22c-1.5-27.89-19.09-53.5-46.72-64.11l-158.9-60.69
						c-27.99-10.66-58.47-2.9-78.08,17.23l-5.59-2.12c14.23-37.67,56.35-56.61,94.02-42.27l158.9,60.69
						C3066.87,2070.5,3085.81,2111.27,3072.82,2148.43z"/>
				</g>
			</g>
			<g>
				<g>
					<path class="st3" d="M2111.31,2228.96h399.89c22.62,0,43.78-11.14,56.58-29.79l70.99-103.43
						c36.24-52.79,104.01-73.74,163.71-50.61l261.93,101.47c41.56,16.1,72.8,51.28,83.87,94.45l260.15,1014.55
						c6.4,24.94,9.25,50.73,7.67,76.43c-7.18,116.9-55.6,184.86-163.19,182.58c-61.71-1.31-120.39-27.04-165.12-69.56
						l-303.06-288.15c-43.68-41.53-101.64-64.69-161.91-64.69h-511.52h-112.63h-511.52c-60.27,0-118.23,23.16-161.91,64.69
						l-303.06,288.15c-44.73,42.53-103.42,68.26-165.12,69.56c-107.59,2.28-156.01-65.68-163.19-182.58
						c-1.58-25.7,1.27-51.49,7.67-76.43L961.7,2241.05c11.07-43.18,42.3-78.35,83.87-94.45l261.93-101.47
						c59.71-23.13,127.48-2.18,163.71,50.61l70.99,103.43c12.8,18.65,33.96,29.79,56.58,29.79h399.89H2111.31z"/>
				</g>
			</g>
			<g class="st6">
				<g>
					<path class="st5" d="M2317.04,2737.28h-556.81c-29.12,0-52.73-23.61-52.73-52.73v-93.68c0-29.12,23.61-52.73,52.73-52.73
						h556.81c29.12,0,52.73,23.61,52.73,52.73v93.68C2369.77,2713.67,2346.16,2737.28,2317.04,2737.28z"/>
				</g>
			</g>
			<g class="st7">
				<g>
					<path class="st8" d="M3416.13,3332.05c-7.19,116.89-55.62,184.83-163.2,182.55c-61.73-1.29-120.41-27.01-165.16-69.54
						l-303.06-288.16c-43.67-41.55-101.62-64.68-161.9-64.68H1487.15c-60.23,0-118.23,23.13-161.9,64.68l-303.06,288.16
						c-44.71,42.53-103.38,68.25-165.11,69.54c-107.57,2.28-156.01-65.66-163.2-182.55c-1.55-25.72,1.29-51.48,7.66-76.42
						l5.17-20.13c21.42,69.49,68.97,107.99,150.37,106.28c61.73-1.29,120.41-27.06,165.11-69.59l303.06-288.11
						c43.67-41.55,101.68-64.73,161.9-64.73h1135.66c60.28,0,118.23,23.18,161.9,64.73l303.06,288.11
						c44.76,42.53,103.43,68.3,165.16,69.59c81.39,1.71,128.94-36.74,150.37-106.23l5.12,20.08
						C3414.84,3280.57,3417.69,3306.34,3416.13,3332.05z"/>
				</g>
			</g>
			<g class="st4">
				<g>
					<path class="st5" d="M3416.13,3332.05c-0.21,3-0.41,5.95-0.62,8.85c-1.24-13.61-3.67-27.17-7.09-40.41l-260.11-1014.53
						c-11.07-43.21-42.33-78.34-83.88-94.48l-261.92-101.47c-59.71-23.13-127.5-2.17-163.72,50.6l-70.99,103.43
						c-12.83,18.68-34,29.8-56.61,29.8h-912.39c-22.61,0-43.83-11.12-56.61-29.8l-70.99-103.43c-36.22-52.78-104-73.73-163.72-50.6
						l-261.92,101.47c-41.55,16.14-72.8,51.28-83.88,94.48L701.53,3300.49c-3.41,13.25-5.8,26.8-7.04,40.41
						c-0.21-2.9-0.41-5.85-0.62-8.85c-1.55-25.72,1.29-51.48,7.66-76.42l260.17-1014.58c11.07-43.15,42.33-78.34,83.88-94.43
						l261.92-101.47c59.71-23.13,127.5-2.22,163.72,50.6l70.99,103.43c12.78,18.63,34,29.75,56.61,29.75h912.39
						c22.61,0,43.77-11.12,56.61-29.75l70.99-103.43c36.22-52.83,104-73.73,163.72-50.6l261.92,101.47
						c41.55,16.09,72.8,51.28,83.88,94.43l260.11,1014.58C3414.84,3280.57,3417.69,3306.34,3416.13,3332.05z"/>
				</g>
			</g>
			<g class="st7">
				<g>
					<circle class="st8" cx="2816.22" cy="2302.69" r="68.56"/>
				</g>
			</g>
			<g class="st7">
				<g>
					<circle class="st8" cx="2816.22" cy="2583.42" r="68.56"/>
				</g>
			</g>
			<g class="st7">
				<g>
					
						<ellipse transform="matrix(0.1602 -0.9871 0.9871 0.1602 -164.2741 4693.0278)" class="st8" cx="2675.86" cy="2443.05" rx="68.56" ry="68.56"/>
				</g>
			</g>
			<g class="st7">
				<g>
					<circle class="st8" cx="2956.59" cy="2443.05" r="68.56"/>
				</g>
			</g>
			<g>
				<g>
					<path class="st8" d="M3258.21,3530.19c-1.86,0-3.73-0.02-5.62-0.06c-64.52-1.37-126.85-27.59-175.49-73.83l-303.06-288.15
						c-40.97-38.95-94.67-60.41-151.21-60.41H1487.16c-56.54,0-110.24,21.45-151.21,60.41l-303.06,288.15
						c-48.64,46.25-110.97,72.47-175.49,73.83c-1.88,0.04-3.77,0.06-5.63,0.06c-107.03,0.01-165.35-66.31-173.39-197.2
						c-1.63-26.53,1.1-53.87,8.13-81.24L946.66,2237.2c12.29-47.92,47.17-87.2,93.3-105.07l261.93-101.48
						c66.74-25.85,141.62-2.7,182.12,56.3l71,103.43c9.91,14.43,26.27,23.05,43.78,23.05h912.42c17.51,0,33.88-8.62,43.78-23.05
						l71-103.43c40.5-59,115.37-82.16,182.12-56.3l261.93,101.48c46.13,17.87,81,57.15,93.29,105.07l260.15,1014.55
						c7.02,27.37,9.76,54.7,8.13,81.24C3423.57,3463.87,3365.24,3530.19,3258.21,3530.19z M1487.16,3076.69h1135.67
						c64.53,0,125.83,24.49,172.6,68.96l303.06,288.15c43.02,40.9,97.98,64.09,154.76,65.29c1.66,0.03,3.32,0.05,4.96,0.05
						c90.09,0,135.38-53.54,142.41-168.06c1.43-23.29-1-47.39-7.21-71.62l-260.15-1014.55c-9.81-38.23-37.63-69.57-74.44-83.83
						l-261.94-101.48c-53.24-20.61-113-2.15-145.31,44.92l-71,103.43c-15.7,22.87-41.63,36.53-69.38,36.53h-912.42
						c-27.74,0-53.68-13.66-69.38-36.53l-71-103.43c-32.31-47.08-92.07-65.54-145.31-44.92l-261.93,101.48
						c-36.81,14.26-64.64,45.6-74.44,83.83L716.58,3259.46c-6.22,24.23-8.64,48.33-7.21,71.62
						c7.16,116.61,54.09,170.14,147.37,168.01c56.78-1.2,111.74-24.39,154.76-65.29l303.06-288.15
						C1361.32,3101.18,1422.62,3076.69,1487.16,3076.69z"/>
				</g>
			</g>
			<g>
				<g>
					<path class="st8" d="M1037.71,2165.46c-6.41,0-12.4-4-14.65-10.39l-0.52-1.49c-15.9-45.44,6.87-94.47,51.83-111.65
						l158.92-60.68c22.07-8.43,46.12-7.74,67.68,1.95c21.57,9.69,38.04,27.21,46.4,49.33c3.03,8.02-1.02,16.98-9.04,20.01
						c-8.03,3.02-16.97-1.03-20.01-9.04c-5.42-14.34-16.1-25.7-30.08-31.98c-13.99-6.29-29.57-6.74-43.89-1.27l-158.91,60.68
						c-29.15,11.13-43.91,42.92-33.61,72.37l0.52,1.47c2.84,8.09-1.41,16.95-9.5,19.79
						C1041.15,2165.17,1039.42,2165.46,1037.71,2165.46z"/>
				</g>
			</g>
			<g>
				<g>
					<path class="st8" d="M1896.92,2431.62h-116.85c-12.38,0-22.42-10.04-22.42-22.42v-31.05c0-12.38,10.04-22.42,22.42-22.42
						h116.85c12.38,0,22.42,10.04,22.42,22.42v31.05C1919.34,2421.58,1909.3,2431.62,1896.92,2431.62z"/>
				</g>
			</g>
			<g>
				<g>
					<path class="st8" d="M3072.28,2165.46c-1.71,0-3.44-0.29-5.14-0.88c-8.09-2.84-12.34-11.7-9.5-19.79l0.52-1.49
						c10.3-29.43-4.47-61.23-33.62-72.36l-158.91-60.68c-14.33-5.47-29.91-5.02-43.89,1.27c-13.98,6.28-24.66,17.64-30.08,31.98
						c-3.04,8.02-12,12.05-20.01,9.04c-8.02-3.03-12.06-11.99-9.04-20.01c8.36-22.11,24.84-39.63,46.4-49.33
						c21.56-9.69,45.6-10.39,67.68-1.95l158.91,60.68c44.96,17.18,67.73,66.21,51.84,111.63l-0.53,1.5
						C3084.68,2161.46,3078.69,2165.46,3072.28,2165.46z"/>
				</g>
			</g>
			<g>
				<g>
					<path class="st8" d="M2181.17,2431.62h146.5c13.63,0,24.68-11.05,24.68-24.68v-26.54c0-13.63-11.05-24.68-24.68-24.68h-146.5
						c-13.63,0-24.68,11.05-24.68,24.68v26.54C2156.5,2420.57,2167.54,2431.62,2181.17,2431.62z"/>
				</g>
			</g>
			<g>
				<g>
					
						<ellipse transform="matrix(0.7071 -0.7071 0.7071 0.7071 -1482.4005 1914.8016)" class="st9" cx="1570.17" cy="2746.82" rx="216.36" ry="216.36"/>
				</g>
			</g>
			<g class="st4">
				<g>
					<path class="st5" d="M1803.35,2775.24c0,119.48-96.86,216.34-216.34,216.34c-85.38,0-159.16-49.41-194.4-121.13
						c39.12,56.04,104.06,92.72,177.58,92.72c119.48,0,216.34-96.86,216.34-216.34c0-34.25-7.97-66.59-22.09-95.36
						C1788.96,2686.5,1803.35,2729.19,1803.35,2775.24z"/>
				</g>
			</g>
			<g class="st7">
				<g>
					<path class="st8" d="M1782.96,2707.41c-36.06-69.34-108.56-116.68-192.07-116.68c-119.53,0-216.39,96.86-216.39,216.34
						c0,13.45,1.24,26.65,3.57,39.43c-15.52-29.8-24.27-63.75-24.27-99.66c0-119.53,96.86-216.39,216.39-216.39
						C1676.22,2530.45,1764.39,2606.72,1782.96,2707.41z"/>
				</g>
			</g>
			<g>
				<g>
					<path class="st8" d="M1570.17,2978.7c-127.86,0-231.89-104.03-231.89-231.89c0-127.86,104.03-231.89,231.89-231.89
						s231.89,104.03,231.89,231.89C1802.06,2874.68,1698.03,2978.7,1570.17,2978.7z M1570.17,2545.98
						c-110.74,0-200.84,90.09-200.84,200.84c0,110.75,90.09,200.84,200.84,200.84c110.75,0,200.84-90.09,200.84-200.84
						C1771.01,2636.07,1680.91,2545.98,1570.17,2545.98z"/>
				</g>
			</g>
			<g>
				<g>
					<g>
						<path class="st9" d="M1432.19,2374.6c0,97.23-78.81,176.03-176.03,176.03s-176.03-78.81-176.03-176.03
							c0-2.9,0.05-5.8,0.21-8.69c4.55-93.19,81.5-167.39,175.82-167.39c80.36,0,148.09,53.86,169.2,127.39
							C1429.81,2341.38,1432.19,2357.73,1432.19,2374.6z"/>
					</g>
				</g>
				<g class="st7">
					<g>
						<path class="st8" d="M1449.42,2427.32c0,97.23-78.8,176.03-176.03,176.03c-87.81,0-160.56-64.27-173.86-148.35
							c29.18,56.76,88.38,95.62,156.63,95.62c97.23,0,176.03-78.81,176.03-176.03c0-9.37-0.72-18.63-2.17-27.63
							c5.17,10.04,9.42,20.65,12.57,31.67C1447.04,2394.1,1449.42,2410.45,1449.42,2427.32z"/>
					</g>
				</g>
				<g class="st4">
					<g>
						<path class="st5" d="M1425.36,2325.91c-30.53-52.16-87.19-87.14-151.97-87.14c-97.23,0-176.03,78.8-176.03,176.03
							c0,7.35,0.47,14.64,1.35,21.73c-10.76-21.42-17.23-45.33-18.37-70.63c4.55-93.19,81.5-167.39,175.82-167.39
							C1336.52,2198.51,1404.25,2252.38,1425.36,2325.91z"/>
					</g>
				</g>
				<g class="st7">
					<g>
						<path class="st8" d="M1432.19,2374.6c0,97.23-78.81,176.03-176.03,176.03c-90.76,0-165.42-68.66-175-156.83
							c30.53,52.26,87.29,87.39,152.18,87.39c97.23,0,176.03-78.8,176.03-176.03c0-6.47-0.36-12.88-1.04-19.15
							C1423.5,2312.04,1432.19,2342.31,1432.19,2374.6z"/>
					</g>
				</g>
				<g>
					<g>
						<path class="st8" d="M1256.16,2566.15c-105.63,0-191.57-85.94-191.57-191.57s85.94-191.57,191.57-191.57
							s191.57,85.94,191.57,191.57S1361.8,2566.15,1256.16,2566.15z M1256.16,2214.05c-88.51,0-160.52,72.01-160.52,160.52
							s72.01,160.52,160.52,160.52s160.52-72.01,160.52-160.52S1344.68,2214.05,1256.16,2214.05z"/>
					</g>
				</g>
				<g>
					<g>
						<circle class="st3" cx="1256.16" cy="2374.58" r="106.63"/>
					</g>
				</g>
				<g class="st7">
					<g>
						<path class="st8" d="M1362.81,2374.6c0,58.88-47.76,106.59-106.64,106.59c-56.5,0-102.71-43.88-106.38-99.45
							c18.73,30.48,52.42,50.81,90.86,50.81c58.88,0,106.64-47.71,106.64-106.59c0-2.43-0.1-4.81-0.31-7.19
							C1357.01,2334.96,1362.81,2354.11,1362.81,2374.6z"/>
					</g>
				</g>
				<g class="st4">
					<g>
						<path class="st5" d="M1362.5,2367.2c-16.45-37.62-54.02-63.9-97.69-63.9c-58.94,0-106.64,47.76-106.64,106.64
							c0,2.48,0.1,4.97,0.31,7.4c-5.74-13.09-8.95-27.53-8.95-42.74c0-58.94,47.76-106.64,106.64-106.64
							C1312.56,2267.95,1358.77,2311.73,1362.5,2367.2z"/>
					</g>
				</g>
				<g>
					<g>
						<path class="st8" d="M1256.16,2494.15c-65.93,0-119.57-53.64-119.57-119.57c0-65.93,53.64-119.57,119.57-119.57
							s119.57,53.64,119.57,119.57C1375.73,2440.51,1322.09,2494.15,1256.16,2494.15z M1256.16,2280.88
							c-51.66,0-93.7,42.04-93.7,93.7c0,51.67,42.04,93.7,93.7,93.7s93.7-42.04,93.7-93.7
							C1349.86,2322.91,1307.83,2280.88,1256.16,2280.88z"/>
					</g>
				</g>
			</g>
			<g>
				<g>
					<g>
						<path class="st9" d="M2595.57,2781.71c0,97.23-78.81,176.03-176.03,176.03c-97.23,0-176.03-78.81-176.03-176.03
							c0-2.9,0.05-5.8,0.21-8.69c4.55-93.19,81.5-167.39,175.82-167.39c80.36,0,148.09,53.86,169.2,127.39
							C2593.19,2748.49,2595.57,2764.84,2595.57,2781.71z"/>
					</g>
				</g>
				<g class="st7">
					<g>
						<path class="st8" d="M2612.8,2834.44c0,97.23-78.8,176.03-176.03,176.03c-87.81,0-160.56-64.27-173.86-148.35
							c29.18,56.76,88.38,95.62,156.63,95.62c97.23,0,176.03-78.81,176.03-176.03c0-9.37-0.72-18.63-2.17-27.63
							c5.17,10.04,9.42,20.65,12.57,31.67C2610.42,2801.22,2612.8,2817.57,2612.8,2834.44z"/>
					</g>
				</g>
				<g class="st4">
					<g>
						<path class="st5" d="M2588.74,2733.02c-30.53-52.16-87.19-87.14-151.97-87.14c-97.23,0-176.03,78.8-176.03,176.03
							c0,7.35,0.47,14.64,1.35,21.73c-10.76-21.42-17.23-45.33-18.37-70.63c4.55-93.19,81.5-167.39,175.82-167.39
							C2499.9,2605.63,2567.63,2659.49,2588.74,2733.02z"/>
					</g>
				</g>
				<g class="st7">
					<g>
						<path class="st8" d="M2595.57,2781.71c0,97.23-78.81,176.03-176.03,176.03c-90.76,0-165.42-68.66-175-156.83
							c30.53,52.26,87.29,87.39,152.18,87.39c97.23,0,176.03-78.8,176.03-176.03c0-6.47-0.36-12.88-1.03-19.15
							C2586.88,2719.15,2595.57,2749.42,2595.57,2781.71z"/>
					</g>
				</g>
				<g>
					<g>
						<path class="st8" d="M2419.54,2973.27c-105.63,0-191.57-85.94-191.57-191.57c0-105.63,85.94-191.57,191.57-191.57
							c105.63,0,191.57,85.94,191.57,191.57C2611.11,2887.33,2525.17,2973.27,2419.54,2973.27z M2419.54,2621.17
							c-88.51,0-160.52,72.01-160.52,160.52c0,88.51,72.01,160.52,160.52,160.52c88.51,0,160.52-72.01,160.52-160.52
							C2580.07,2693.18,2508.05,2621.17,2419.54,2621.17z"/>
					</g>
				</g>
				<g>
					<g>
						<circle class="st3" cx="2419.54" cy="2781.69" r="106.63"/>
					</g>
				</g>
				<g class="st7">
					<g>
						<path class="st8" d="M2526.19,2781.71c0,58.88-47.76,106.59-106.64,106.59c-56.5,0-102.71-43.88-106.38-99.45
							c18.73,30.48,52.42,50.81,90.86,50.81c58.88,0,106.64-47.71,106.64-106.59c0-2.43-0.1-4.81-0.31-7.19
							C2520.39,2742.08,2526.19,2761.22,2526.19,2781.71z"/>
					</g>
				</g>
				<g class="st4">
					<g>
						<path class="st5" d="M2525.87,2774.31c-16.45-37.62-54.02-63.9-97.69-63.9c-58.94,0-106.64,47.76-106.64,106.64
							c0,2.48,0.1,4.97,0.31,7.4c-5.74-13.09-8.95-27.53-8.95-42.74c0-58.94,47.76-106.64,106.64-106.64
							C2475.94,2675.07,2522.15,2718.84,2525.87,2774.31z"/>
					</g>
				</g>
				<g>
					<g>
						<path class="st8" d="M2419.54,2901.26c-65.93,0-119.57-53.64-119.57-119.57s53.64-119.57,119.57-119.57
							c65.93,0,119.57,53.64,119.57,119.57S2485.48,2901.26,2419.54,2901.26z M2419.54,2688c-51.66,0-93.7,42.04-93.7,93.7
							c0,51.66,42.04,93.7,93.7,93.7c51.67,0,93.7-42.04,93.7-93.7C2513.24,2730.03,2471.21,2688,2419.54,2688z"/>
					</g>
				</g>
			</g>
			<g>
				<g>
					<polygon class="st3" points="1624.83,2612.72 1624.83,2702.86 1570.97,2755.48 1518.35,2701.56 1518.35,2612.72 					"/>
				</g>
			</g>
			<g class="st4">
				<g>
					<rect x="1518.35" y="2612.72" class="st5" width="106.49" height="24.99"/>
				</g>
			</g>
			<g>
				<g>
					<polygon class="st3" points="1623.54,2809.34 1623.54,2898.6 1517.05,2898.6 1517.05,2808.05 1570.97,2755.48 					"/>
				</g>
			</g>
			<g class="st4">
				<g>
					<polygon class="st5" points="1624.21,2806.11 1624.21,2895.37 1622.3,2895.37 1622.3,2844.92 1569.73,2791.05 1517.73,2841.76 
						1517.73,2804.82 1571.64,2752.24 					"/>
				</g>
			</g>
			<g>
				<g>
					<polygon class="st3" points="1570.97,2755.48 1517.05,2808.05 1427.8,2808.05 1427.8,2701.56 1518.35,2701.56 					"/>
				</g>
			</g>
			<g class="st4">
				<g>
					<polygon class="st5" points="1570.97,2755.48 1554.05,2771.98 1509.29,2726.14 1427.8,2726.14 1427.8,2701.56 1518.35,2701.56 
											"/>
				</g>
			</g>
			<g>
				<g>
					<polygon class="st3" points="1570.97,2755.47 1624.89,2702.9 1714.14,2702.9 1714.14,2809.39 1623.59,2809.39 					"/>
				</g>
			</g>
			<g class="st4">
				<g>
					<polygon class="st5" points="1714.14,2702.91 1714.14,2728.36 1632.23,2728.36 1587.27,2772.19 1570.97,2755.48 
						1624.89,2702.91 					"/>
				</g>
			</g>
			<g>
				<g>
					<path class="st8" d="M1570.97,2768.41c-0.05,0-0.1,0-0.15,0c-3.43-0.04-6.71-1.44-9.11-3.9l-52.62-53.92
						c-2.36-2.42-3.68-5.66-3.68-9.04v-88.84c0-7.14,5.79-12.94,12.94-12.94h106.49c7.14,0,12.94,5.79,12.94,12.94v90.13
						c0,3.49-1.4,6.82-3.89,9.25l-53.86,52.62C1577.59,2767.09,1574.35,2768.41,1570.97,2768.41z M1531.28,2696.3l39.91,40.88
						l40.71-39.77v-71.75h-80.61V2696.3z"/>
				</g>
			</g>
			<g>
				<g>
					<path class="st8" d="M1623.54,2911.54h-106.49c-7.14,0-12.94-5.79-12.94-12.94v-90.55c0-3.49,1.41-6.83,3.9-9.26l53.92-52.57
						c5.11-4.98,13.3-4.89,18.29,0.23l52.57,53.87c2.36,2.42,3.68,5.66,3.68,9.04v89.26
						C1636.48,2905.74,1630.69,2911.54,1623.54,2911.54z M1529.99,2885.67h80.62v-71.06l-39.86-40.84l-40.76,39.73V2885.67z"/>
				</g>
			</g>
			<g>
				<g>
					<path class="st8" d="M1517.05,2820.98h-89.26c-7.14,0-12.94-5.79-12.94-12.94v-106.49c0-7.14,5.79-12.94,12.94-12.94h90.55
						c3.49,0,6.82,1.4,9.26,3.9l52.62,53.92c2.4,2.45,3.72,5.76,3.68,9.2c-0.04,3.43-1.45,6.7-3.9,9.1l-53.92,52.57
						C1523.67,2819.67,1520.42,2820.98,1517.05,2820.98z M1440.73,2795.11h71.06l40.88-39.86l-39.78-40.75h-72.17V2795.11z"/>
				</g>
			</g>
			<g>
				<g>
					<path class="st8" d="M1714.14,2822.32h-90.55c-3.49,0-6.82-1.41-9.26-3.9l-52.62-53.92c-2.4-2.45-3.72-5.76-3.68-9.2
						c0.04-3.43,1.45-6.7,3.9-9.1l53.92-52.57c2.42-2.36,5.66-3.67,9.03-3.67h89.26c7.14,0,12.94,5.79,12.94,12.94v106.49
						C1727.08,2816.53,1721.29,2822.32,1714.14,2822.32z M1629.04,2796.45h72.17v-80.61h-71.06l-40.88,39.86L1629.04,2796.45z"/>
				</g>
			</g>
			<g>
				<g>
					<circle class="st10" cx="2816.22" cy="2253.1" r="68.56"/>
				</g>
			</g>
			<g>
				<g>
					<path class="st8" d="M2816.22,2334.6c-44.93,0-81.49-36.56-81.49-81.49c0-44.94,36.56-81.5,81.49-81.5
						c44.94,0,81.5,36.56,81.5,81.5C2897.72,2298.04,2861.16,2334.6,2816.22,2334.6z M2816.22,2197.48
						c-30.67,0-55.62,24.95-55.62,55.63c0,30.67,24.95,55.62,55.62,55.62c30.67,0,55.63-24.95,55.63-55.62
						C2871.85,2222.43,2846.89,2197.48,2816.22,2197.48z"/>
				</g>
			</g>
			<g>
				<g>
					<circle class="st11" cx="2816.22" cy="2533.83" r="68.56"/>
				</g>
			</g>
			<g>
				<g>
					<path class="st8" d="M2816.22,2615.33c-44.93,0-81.49-36.56-81.49-81.5c0-44.93,36.56-81.49,81.49-81.49
						c44.94,0,81.5,36.56,81.5,81.49C2897.72,2578.77,2861.16,2615.33,2816.22,2615.33z M2816.22,2478.21
						c-30.67,0-55.62,24.95-55.62,55.62c0,30.67,24.95,55.63,55.62,55.63c30.67,0,55.63-24.95,55.63-55.63
						C2871.85,2503.16,2846.89,2478.21,2816.22,2478.21z"/>
				</g>
			</g>
			<g>
				<g>
					
						<ellipse transform="matrix(0.1602 -0.9871 0.9871 0.1602 -115.3271 4651.3833)" class="st12" cx="2675.86" cy="2393.47" rx="68.56" ry="68.56"/>
				</g>
			</g>
			<g>
				<g>
					<path class="st8" d="M2675.86,2474.96c-44.94,0-81.5-36.56-81.5-81.49c0-44.94,36.56-81.5,81.5-81.5s81.5,36.56,81.5,81.5
						C2757.36,2438.4,2720.8,2474.96,2675.86,2474.96z M2675.86,2337.84c-30.67,0-55.63,24.95-55.63,55.63
						c0,30.67,24.95,55.62,55.63,55.62s55.63-24.95,55.63-55.62C2731.49,2362.8,2706.53,2337.84,2675.86,2337.84z"/>
				</g>
			</g>
			<g>
				<g>
					<circle class="st13" cx="2956.59" cy="2393.47" r="68.56"/>
				</g>
			</g>
			<g>
				<g>
					<path class="st8" d="M2956.59,2474.96c-44.94,0-81.5-36.56-81.5-81.49c0-44.94,36.56-81.5,81.5-81.5
						c44.93,0,81.49,36.56,81.49,81.5C3038.08,2438.4,3001.52,2474.96,2956.59,2474.96z M2956.59,2337.84
						c-30.67,0-55.63,24.95-55.63,55.63c0,30.67,24.95,55.62,55.63,55.62c30.67,0,55.62-24.95,55.62-55.62
						C3012.21,2362.8,2987.26,2337.84,2956.59,2337.84z"/>
				</g>
			</g>
			<g class="st4">
				<g>
					<ellipse class="st5" cx="2675.44" cy="2378.15" rx="30.83" ry="22.85"/>
				</g>
			</g>
			<g class="st4">
				<g>
					<ellipse class="st5" cx="2816.22" cy="2234.13" rx="30.83" ry="22.85"/>
				</g>
			</g>
			<g class="st4">
				<g>
					<ellipse class="st5" cx="2956.59" cy="2373.84" rx="30.83" ry="22.85"/>
				</g>
			</g>
			<g class="st4">
				<g>
					<ellipse class="st5" cx="2816.22" cy="2510.98" rx="30.83" ry="22.85"/>
				</g>
			</g>
			<g class="st6">
				<g>
					<path class="st5" d="M3046.66,2624.37l-81.85,50.73c-26.5,16.42-36.03,50.38-21.96,78.2l183.95,363.65
						c9.55,18.88,28.33,31.35,49.44,32.82l26.76,1.87c42.14,2.94,74.07-37.36,61.58-77.71l-128.86-416.25
						C3124.09,2620.1,3080.09,2603.65,3046.66,2624.37z"/>
				</g>
			</g>
			<g class="st6">
				<g>
					<path class="st5" d="M1072.69,2624.37l81.85,50.73c26.5,16.42,36.03,50.38,21.96,78.2l-183.95,363.65
						c-9.55,18.88-28.33,31.35-49.44,32.82l-26.76,1.87c-42.14,2.94-74.07-37.36-61.58-77.71l128.86-416.25
						C995.26,2620.1,1039.25,2603.65,1072.69,2624.37z"/>
				</g>
			</g>
		</g>
		<g>
			<g>
				<g>
					<path class="st5" d="M2999.7,1127.57c-9.46,44.7-38.69,82.65-78.06,105.71l-507.12,297.35l-138.05-39.71l-67.98-19.54
						l-70.41-20.28l256.5-208.3l112.45-55.74l262-129.84c40.56-77.27,77.72-76.25,112.56-19.83c16.2-6.46,30.82-10.14,43.73-11.44
						C2987.91,1019.49,3012.22,1068.32,2999.7,1127.57z"/>
				</g>
			</g>
			<g>
				<g>
					<path class="st5" d="M1461.37,1414.66c-170.64-125.01-93.09-255.34-93.09-255.34l180.65,211.37"/>
				</g>
			</g>
			<g>
				<g>
					<path class="st5" d="M2571.55,1959.57c1.08,22.04-8.1,43.28-24.81,57.67l-14.05,12.07l-3,2.61l-864.23-54.55l-53.87-320.63
						l883.54-170.06c34.84,125.59,56.7,247.1,68.32,363.63C2567.19,1887.23,2569.85,1923.65,2571.55,1959.57z"/>
				</g>
			</g>
			<g>
				<g>
					<circle class="st5" cx="1898.79" cy="987.77" r="557.42"/>
				</g>
			</g>
			<g class="st7">
				<g>
					<path class="st8" d="M2456.21,987.77c0,307.88-249.59,557.42-557.42,557.42c-82.03,0-159.86-17.67-229.99-49.51
						c7.02,0.34,14.11,0.45,21.24,0.45c307.88,0,557.42-249.59,557.42-557.42c0-225.86-134.31-420.33-327.48-507.91
						C2218.01,441.9,2456.21,687.02,2456.21,987.77z"/>
				</g>
			</g>
			<g class="st7">
				<g>
					<path class="st8" d="M1765.61,1530.74c2.27,0,4.59,0,6.85-0.06c-0.06,0-0.17,0.06-0.23,0.06l-9.29,7.48
						c-6.29-2.49-12.46-5.15-18.58-7.93C1751.39,1530.63,1758.47,1530.74,1765.61,1530.74z"/>
				</g>
			</g>
			<g class="st7">
				<g>
					<path class="st8" d="M2999.7,1127.57c-9.46,44.7-38.69,82.65-78.06,105.71l-507.12,297.35l-40.79-119.47
						c-1.19,1.3-2.49,2.66-3.8,3.97c-28.32,28.49-59.65,53.93-93.47,75.8c-87.07,56.25-190.79,88.88-302.11,88.88
						c-56.93,0-111.88-8.5-163.6-24.42c28.72,4.48,58.12,6.8,88.03,6.8c113.98,0,220.25-33.37,309.7-90.81l-21.7-6.23
						c88.14-53.36,160.37-130.35,207.73-222.29l0.06-0.06l112.45-55.74c-21.47,69.62-56.2,133.35-101.29,188.36
						c25.83,22.26,72.28,16.32,72.28,16.32s387.98-225.46,434.72-266.53c40.28-35.41,19.2-85.94,12.58-99.25
						C2987.91,1019.49,3012.22,1068.32,2999.7,1127.57z"/>
				</g>
			</g>
			<g>
				<g>
					<path class="st5" d="M1867.13,1494.37c-22.55,10.31-45.77,19.6-69.62,27.93c-8.33,2.95-16.77,5.78-25.27,8.44
						c-1.7-0.4-3.46-0.79-5.15-1.25c-101.74-24.59-192.55-77.16-263.92-149.04c13.99-7.76,29.34-13.26,45.21-16.37l297.97-59.03
						c69.39-65.15,134.6-74.38,120.38,0C2131.9,1301.26,2090.89,1490.58,1867.13,1494.37z"/>
				</g>
			</g>
			<g>
				<g>
					<path class="st8" d="M1898.79,1562.19c-316.74,0-574.42-257.68-574.42-574.41s257.68-574.41,574.42-574.41
						s574.42,257.68,574.42,574.41S2215.52,1562.19,1898.79,1562.19z M1898.79,447.34c-297.99,0-540.43,242.44-540.43,540.43
						s242.44,540.43,540.43,540.43s540.43-242.44,540.43-540.43S2196.78,447.34,1898.79,447.34z"/>
				</g>
			</g>
			<g>
				<g>
					<g>
						<path class="st8" d="M2409.87,1045.32c-51.78,228.86-309.75,443.73-562.57,457.78l-60.27,27.53
							c-142.47-36.14-240.7-112.67-305.05-184.05c-73.81-81.91-102.99-157.09-102.99-157.09
							c-59.48-438.18,600.53-661.31,940.42-370.2l0.45,1.13L2409.87,1045.32z"/>
					</g>
				</g>
			</g>
			<g>
				<g>
					<path class="st14" d="M2409.87,1045.32c-51.78,228.86-309.75,443.73-562.57,457.78l-60.27,27.53
						c-142.47-36.14-240.7-112.67-305.05-184.05c475.62,36.65,786.85-104.29,837.89-526.15L2409.87,1045.32z"/>
				</g>
			</g>
			<g>
				<g>
					<path class="st5" d="M2679.29,2738.31c0.28,14.05-3.06,29-9.8,44.81c-7.14,16.71-23.51,27.93-41.69,27.98
						c-78.74,0.28-147.12-12.52-204.27-39.54c-18.81-8.95-36.42-19.37-52.8-31.44c-13.48-9.91-20.28-26.57-17.84-43.11l38.69-260.41
						l-184.11-203.93l-194.36-1.42l-243.25,26.91l63.28,176.57c48.72,77.16,52.29,128.54,15.07,156.69l-182.18,87.8
						c-75.17,24.53-107.07-14.79-106.73-63.9c0.28-39.6,21.47-85.54,57.78-109.33l-97.61-232.71
						c-16.6-39.54-21.36-83.56-10.88-125.19c22.15-88.15,99.98-139.53,223.48-210l-42.03-281.37
						c-122.7,34.16-328.67-120.94-228.69-242.06c7.99-9.63,17.16-18.07,27.25-25.21c4.65-3.28,9.52-6.29,14.56-9.01
						c5.38-3,10.93-5.61,16.65-7.93c9.18-3.68,18.75-6.51,28.55-8.44l297.97-59.03c69.39-65.15,134.6-74.38,120.38,0
						c22.6-0.51,41.35,2.61,56.31,8.33c91.26,35.06,40.67,168.87-137.94,180.2c-5.83,0.45-11.84,0.68-17.96,0.79
						c-20.39,9.35-41.35,17.79-62.82,25.49c0,0.06-0.06,0.06-0.11,0.06l-2.1,0.74c-1.53,0.57-3.06,1.13-4.59,1.64
						c-8.27,2.95-16.6,5.72-25.04,8.38c-0.06,0-0.17,0.06-0.23,0.06l-9.29,7.48l-7.31,5.89c18.07,4.65,36.42,8.44,55.12,11.27
						c28.72,4.48,58.12,6.8,88.03,6.8c113.98,0,220.25-33.37,309.7-90.81c30.14-19.37,58.35-41.41,84.24-65.88l65.37-15.46
						c4.02,8.21,7.99,16.6,11.84,25.09c16.37,35.97,31.21,74.49,44.58,115.51c38.18,116.64,64.75,253.33,81.12,407.47
						c2.38,22.21,8.67,43.79,18.52,63.84c0.68,1.36,1.36,2.72,2.04,4.08l111.82,214.13c23.91,45.77,31.95,98.17,22.94,149.04
						l-49.79,279.84C2653.86,2672.21,2678.56,2702.29,2679.29,2738.31z"/>
				</g>
			</g>
			<g class="st7">
				<g>
					<path class="st8" d="M2369.94,1415.12c-28.32,28.49-59.65,53.93-93.47,75.8c-87.07,56.25-190.79,88.88-302.11,88.88
						c-56.93,0-111.88-8.5-163.6-24.42c28.72,4.48,58.12,6.8,88.03,6.8c113.98,0,220.25-33.37,309.7-90.81
						c30.14-19.37,58.35-41.41,84.24-65.88l65.37-15.46C2362.12,1398.24,2366.08,1406.62,2369.94,1415.12z"/>
				</g>
			</g>
			<g>
				<g>
					<path class="st8" d="M1378.97,1203.66c-6.98,0-13.05-5.15-14.02-12.26c-12.6-92.84,5.02-179.66,52.38-258.05
						c42.7-70.68,109.22-131.98,192.38-177.27c107.95-58.8,237.41-87.77,364.53-81.52c137.37,6.72,259.91,53.05,354.39,133.98
						c5.94,5.09,6.63,14.03,1.54,19.97c-5.09,5.94-14.02,6.63-19.97,1.54c-198.3-169.86-495.68-153.27-686.95-49.09
						c-168.91,91.99-252.83,240.2-230.24,406.63c1.05,7.75-4.38,14.88-12.13,15.94C1380.24,1203.62,1379.6,1203.66,1378.97,1203.66z
						"/>
				</g>
			</g>
			<g>
				<g>
					<path class="st8" d="M1341.37,1001.94c-1.08,0-2.17-0.12-3.27-0.38c-7.61-1.8-12.32-9.43-10.52-17.04
						c21.13-89.34,67.91-167.26,139.03-231.62c64.73-58.57,148.37-103.52,241.87-129.98c109.8-31.08,226.29-35.78,336.84-13.58
						c117.11,23.51,219.13,76.18,295.05,152.32c5.53,5.54,5.51,14.5-0.03,20.02c-5.53,5.52-14.5,5.51-20.02-0.03
						c-142.88-143.3-380-194.9-604.13-131.49c-190.99,54.05-322.59,178.3-361.04,340.86
						C1353.6,997.55,1347.79,1001.94,1341.37,1001.94z"/>
				</g>
			</g>
			<g>
				<g>
					<path class="st8" d="M1847.3,1517.23c-7.46,0-13.7-5.84-14.12-13.38c-0.43-7.81,5.55-14.49,13.35-14.92
						c241.92-13.43,498.72-222.19,549.55-446.77c1.73-7.63,9.33-12.38,16.94-10.69c7.63,1.73,12.41,9.31,10.69,16.94
						c-25.53,112.78-102.34,228.42-210.75,317.29c-110.75,90.79-240.33,144.6-364.86,151.5
						C1847.84,1517.22,1847.57,1517.23,1847.3,1517.23z"/>
				</g>
			</g>
			<g class="st15">
				<g>
					<path class="st5" d="M1731.2,831.83c-65.71,69.08-117.46,144.61-156.24,226.13c-18.44,38.77-27.63,81.24-27.4,124.17
						c0.28,51.21,3.78,103.58,10.12,156.96c0.79,6.64-7.69,10.19-11.89,4.98c-146.61-181.81-112.66-356.97,177.23-522.7
						C1729.75,817.54,1736.53,826.23,1731.2,831.83z"/>
				</g>
			</g>
			<g class="st15">
				<g>
					<path class="st5" d="M2056.17,859.56c28.13,21.82,52.35,45.74,72.67,71.77c15.4,19.74,43.28,23.3,62.1,6.79
						c0.42-0.37,0.84-0.74,1.25-1.12c37.67-34.43,34-91.35-4.64-124.68c-27.13-23.4-64.51-40.31-98.06-42.25
						C2040.72,767.26,2017.57,829.63,2056.17,859.56z"/>
				</g>
			</g>
			<g class="st15">
				<g>
					<path class="st5" d="M2188.65,1042.11c5.27,19.38,11.94,47.01,16.21,76.14c5.82,39.73,57.7,52.14,79.5,18.43
						c7.69-11.89,12.57-28.18,14.34-49.33c2.57-30.64-7.43-61.56-29.63-82.84c-16.95-16.25-35.29-21.92-55.42-13.93
						C2193.41,998.61,2182.93,1021.1,2188.65,1042.11z"/>
				</g>
			</g>
			<g>
				<g>
					<path class="st8" d="M2177.07,1897.29c-6.65,0-12.58-4.7-13.89-11.47l-24.17-124.75c-2.39-12.3-13.22-21.24-25.75-21.24h-54.47
						c-22.3,0-41.61-16.64-44.9-38.7l-14.75-98.91c-1.15-7.73,4.18-14.94,11.92-16.1c7.74-1.2,14.95,4.18,16.1,11.92l14.75,98.91
						c1.24,8.3,8.5,14.56,16.89,14.56h54.47c26.07,0,48.6,18.58,53.56,44.17l24.17,124.76c1.49,7.68-3.53,15.11-11.21,16.59
						C2178.86,1897.21,2177.96,1897.29,2177.07,1897.29z"/>
				</g>
			</g>
			<g>
				<g>
					<path class="st8" d="M2363.17,1387.53c7.53,11.69,15.03,23.51,21.57,35.79c3.28,6.14,6.69,12.23,9.88,18.43l9.11,18.8
						c3.09,6.26,5.84,12.65,8.59,19.05c2.77,6.39,5.56,12.78,8.19,19.23c4.92,13,10.26,25.91,14.61,39.12
						c4.5,13.16,8.89,26.38,12.55,39.79c3.97,13.33,7.33,26.81,10.57,40.31c6.54,26.99,12.4,54.1,18.07,81.22
						c11.27,54.26,20.15,108.92,27.44,163.72c1.7,13.71,3.65,27.4,5.14,41.14l2.34,20.59l1.17,10.29c0.37,3.35,0.73,6.28,1.21,9.43
						c1.94,12.35,5.15,24.52,9.7,36.17c2.27,5.83,4.84,11.53,7.71,17.09l9.51,18.22l76.3,146.08l19.08,36.52l4.77,9.13l2.38,4.56
						l2.46,4.94c3.31,6.58,6.25,13.35,8.92,20.21c10.73,27.44,16.55,56.8,17.03,86.27c0.26,14.73-0.77,29.48-3.09,44.03
						c-0.56,3.74-1.17,7.1-1.77,10.46l-1.8,10.14l-3.61,20.28l-14.43,81.13l-28.86,162.26l-0.01,0.06l-9.9-18.54
						c16.31,7.29,32.44,15.97,47.3,27.81c14.83,11.59,28.2,27.68,35.45,47.22c7.14,19.61,6.64,41.24,1.69,59.74
						c-1.4,4.56-2.5,9.34-4.31,13.64l-2.53,6.59c-0.35,1.01-0.98,2.35-1.6,3.66c-0.59,1.31-1.26,2.58-1.98,3.83
						c-5.62,10.04-14.02,18.51-24.1,24.17c-5.04,2.83-10.49,4.98-16.15,6.31c-2.84,0.64-5.71,1.12-8.61,1.39
						c-1.45,0.15-2.9,0.17-4.35,0.23c-1.57,0.07-2.29,0-3.48,0.01c-8.63-0.11-17.26-0.06-25.9-0.51
						c-17.28-0.52-34.58-2.05-51.83-4.09c-17.26-2.1-34.44-5.26-51.5-9.1c-17.04-4.02-33.88-9.07-50.43-15.12
						c-16.54-6.09-32.63-13.54-48.19-22c-3.84-2.21-7.78-4.25-11.55-6.6l-11.28-7.07l-10.95-7.59l-2.73-1.91
						c-0.97-0.7-2.25-1.74-3.34-2.6c-2.23-1.87-4.32-3.9-6.28-6.05c-7.82-8.64-13-19.49-14.99-30.87c-1-5.69-1.2-11.52-0.61-17.26
						c0.34-3.22,0.64-4.83,0.95-7.01l0.93-6.25l7.42-49.99l29.69-199.94l4.2,13.88l-184.11-203.93l12.49,5.6l-194.34-1.42l1.99-0.1
						l-243.27,26.91l14.13-22.62l63.26,176.55l-1.63-3.35c7.81,12.77,15.57,25.62,22.15,39.45c6.61,13.79,12.55,28.17,16.49,43.82
						c3.86,15.57,5.8,32.88,1.9,50.78c-3.54,18.04-15.52,34.67-29.54,45.29c-0.89,0.68-1.92,1.29-2.89,1.76l-182.22,87.8l-0.25,0.12
						c-0.58,0.28-1.25,0.53-1.85,0.72c-12.18,3.73-24.75,6.89-38.21,8c-13.44,0.92-27.93-0.11-41.99-5.56
						c-14.11-5.26-26.65-16.01-34.62-28.62c-8.17-12.65-12.03-26.74-13.44-40.3c-2.67-27.3,3.31-53.45,14.21-77.08
						c11.05-23.52,27.79-45.04,50.52-60.06l-6.35,20.79l-67.27-160.37l-16.82-40.09l-8.41-20.05c-2.79-6.66-5.61-13.22-8.49-20.73
						c-10.92-29.26-16.03-60.94-13.84-92.49c1.24-15.71,3.93-31.54,8.98-46.47l1.71-5.66l2.15-5.52l4.39-11.02
						c1.69-3.57,3.51-7.08,5.28-10.61l2.68-5.29c0.95-1.73,2.03-3.37,3.04-5.06c16.14-27.14,37.69-49.98,60.84-69.26
						c23.15-19.44,47.75-36.14,72.62-51.85c24.9-15.67,50.15-30.33,75.4-44.77l-8.39,17.27l-42.04-281.35l21.36,13.86
						c-18.98,5.2-38.38,6.24-57.08,4.73c-18.74-1.53-36.91-5.59-54.35-11.34c-34.8-11.75-66.91-29.93-94.95-53.54
						c-13.98-11.86-26.91-25.17-38.06-40.23c-11.1-15.04-20.47-31.91-26.26-50.58c-5.81-18.58-7.69-39.16-4.03-58.99
						c3.54-19.87,12.51-38.32,24.17-53.67c23.02-31.38,58.03-52.13,94.85-60.74l101.75-20.28l202.38-40.09l-8.33,4.28
						c11.43-10.61,23.42-20.75,36.58-29.76c13.14-9.03,27.23-17.21,43.81-22.78c8.35-2.66,17.45-4.76,28.06-4.35
						c5.36,0.35,11.1,1.4,16.85,3.87c5.76,2.6,11.14,6.75,15.13,11.73c4.03,5.03,6.29,10.46,8,15.7c1.37,5.14,2.2,10.19,2.37,14.87
						c0.46,9.46-0.61,18.05-2.11,26.3l-17.08-20.18c17.61-0.22,35.69,1.19,53.7,6.51c9,2.52,17.89,6.53,26.42,11.48
						c8.29,5.5,16.52,11.77,22.75,20.39l2.42,3.1c0.71,1.11,1.37,2.27,2.05,3.41c1.3,2.31,2.74,4.56,3.85,6.97
						c2.03,4.92,4.09,9.86,5.04,15.09c1.45,5.15,1.51,10.39,1.95,15.6c-0.27,5.11-0.22,10.36-1.34,15.26
						c-1.49,10.08-5.22,19.22-9.32,27.95c-4.52,8.43-9.65,16.46-15.69,23.48c-11.91,14.26-26.12,25.76-41.24,35.16
						c-15.14,9.4-31.24,16.8-47.78,22.26c-16.51,5.56-33.38,9.72-50.38,12.2c-16.98,2.87-34.06,3.81-51.08,4.41l-0.27,0.01
						l6.79-1.54c-22.85,10.46-46.18,19.78-69.81,28.09c-23.68,8.13-47.29,16.51-71.45,22.97c-24.15,6.48-48.88,10.44-73.61,13.44
						c-24.76,2.86-49.63,4.59-74.64,4.02c-3.17-0.07-5.69-2.7-5.61-5.88c0.06-2.5,1.73-4.6,3.98-5.34
						c23.62-7.68,47.22-14.2,70.65-20.97c23.46-6.64,46.65-13.71,69.98-19.92c23.32-6.24,46.74-12.21,69.43-20.39
						c22.73-8,45.09-16.93,66.93-26.93c2.03-0.93,4.14-1.42,6.24-1.52l0.55-0.02l0.25-0.01c15.59-0.58,31.19-1.41,46.42-4.01
						c15.32-2.21,30.27-5.94,44.68-10.79c14.47-4.75,28.23-11.14,40.81-18.96c12.57-7.8,23.99-17.18,33.02-28
						c4.64-5.34,8.26-11.21,11.51-17.11c2.74-6.03,5.33-12.17,6.13-18.31c0.81-3.08,0.55-6.06,0.86-9.08
						c-0.4-2.89-0.22-5.92-1.13-8.64c-0.42-2.87-1.67-5.43-2.65-8.1c-0.59-1.29-1.44-2.46-2.11-3.72l-1.05-1.87l-1.39-1.69
						c-3.27-4.79-8.35-8.49-13.53-12.06c-5.62-3.15-11.65-6.04-18.4-7.88c-13.33-3.96-28.16-5.28-43.15-5.08h-0.05
						c-9.44,0.12-17.19-7.43-17.31-16.87c-0.01-1.1,0.1-2.27,0.28-3.31c1.17-6.38,1.83-12.66,1.55-18.08
						c-0.08-2.76-0.58-5.07-1.05-7.13c-0.67-1.79-1.29-3.34-1.99-4.12c-0.71-0.79-1.32-1.29-2.33-1.83
						c-1.12-0.43-2.76-0.82-4.82-0.99c-4.29-0.18-10,0.83-15.77,2.73c-11.67,3.89-23.74,10.59-35.05,18.44
						c-11.41,7.8-22.23,16.93-32.6,26.56l-0.07,0.07c-2.38,2.21-5.29,3.62-8.26,4.21l-202.38,40.09l-100.58,20.03
						c-29.92,7-57.7,23.69-75.43,48.04c-9.07,11.97-15.41,25.33-17.92,39.36c-2.57,14.01-1.36,28.65,3.05,42.84
						c8.88,28.55,29.51,54.34,53.85,74.97c24.52,20.68,53.3,36.97,83.68,47.2c30.26,9.98,62.96,13.91,91.61,6.13l0.1-0.03
						c9.06-2.46,18.4,2.89,20.86,11.94c0.17,0.61,0.31,1.33,0.41,1.94l42.04,281.35c1.06,7.12-2.5,13.89-8.39,17.27
						c-25.07,14.33-49.96,28.8-74.12,44c-24.12,15.22-47.57,31.21-68.82,49.06c-21.34,17.75-39.98,37.85-53.52,60.61
						c-0.85,1.42-1.79,2.8-2.58,4.24l-2.21,4.42l-4.42,8.84l-3.64,9.18l-1.82,4.59l-1.4,4.75c-4.29,12.55-6.43,25.53-7.51,38.68
						c-1.83,26.32,2.43,53.17,11.77,78.18c2.31,6.02,5.19,12.79,8,19.49l8.41,20.05l16.82,40.09l67.27,160.37
						c3.22,7.67,0.36,16.38-6.35,20.79c-16.41,10.8-29.65,27.38-38.37,46.05c-8.7,18.62-13.17,39.74-11.2,59.05
						c0.96,9.61,3.68,18.63,8.29,25.62c4.58,7.01,10.58,12.33,18.43,15.29c7.8,3.02,17.15,3.96,26.95,3.29
						c9.87-0.81,20.07-3.32,30.22-6.41l-2.1,0.85l182.22-87.8l-2.89,1.76c4.17-3.59,8.32-7.15,10.91-11.56
						c1.67-1.99,2.42-4.49,3.72-6.69c0.47-1.2,0.8-2.47,1.25-3.69c0.44-1.22,0.9-2.44,1.05-3.8c2.3-10.44,1.39-22.69-1.74-35.06
						c-3.11-12.41-8.19-24.91-14.08-37.17c-5.84-12.3-13.05-24.25-20.31-36.14l-0.14-0.24c-0.6-0.98-1.11-2.08-1.49-3.11
						l-63.26-176.55c-3.17-8.84,1.43-18.57,10.27-21.73c1.25-0.45,2.6-0.75,3.86-0.89l243.27-26.91c0.64-0.07,1.37-0.1,1.99-0.1
						l194.34,1.42c4.94,0.03,9.41,2.22,12.49,5.6l184.11,203.93c3.52,3.9,4.89,9.06,4.2,13.89l-29.69,199.94l-7.42,49.99l-0.93,6.25
						c-0.29,1.98-0.69,4.53-0.76,5.5c-0.27,2.63-0.18,5.3,0.27,7.9c0.91,5.21,3.27,10.15,6.78,14.01c0.89,0.96,1.82,1.86,2.81,2.71
						l1.64,1.28l2.45,1.71l9.81,6.8l10.13,6.34c3.38,2.11,6.93,3.94,10.39,5.93c14.02,7.62,28.57,14.38,43.66,19.93
						c15.1,5.51,30.56,10.16,46.32,13.88c15.8,3.54,31.79,6.5,47.98,8.47c16.19,1.92,32.49,3.37,48.89,3.85
						c8.18,0.43,16.41,0.37,24.62,0.49c0.92,0,2.3,0.05,2.83,0c0.65-0.05,1.31-0.02,1.95-0.1c1.3-0.12,2.58-0.35,3.86-0.62
						c2.54-0.59,5-1.57,7.3-2.87c4.61-2.59,8.51-6.51,11.12-11.17c0.34-0.57,0.66-1.16,0.92-1.78c0.28-0.59,0.57-1.15,0.92-2.13
						l1.99-5.21c1.5-3.46,2.2-6.96,3.32-10.43c3.66-13.93,3.6-27.55-0.74-39.71c-4.57-12.08-13.12-23.2-24.8-32.3
						c-11.52-9.2-25.23-16.74-39.65-23.16l-0.08-0.04c-7.28-3.24-11.15-10.99-9.82-18.5l0.01-0.06l28.86-162.27l14.43-81.13
						l3.61-20.28l1.8-10.14c0.61-3.4,1.22-6.8,1.67-9.85c2-12.58,2.9-25.33,2.67-38.06c-0.41-25.47-5.45-50.85-14.72-74.57
						c-2.31-5.93-4.84-11.78-7.71-17.47l-2.12-4.28l-2.38-4.56l-4.77-9.13l-19.08-36.52l-76.3-146.09l-9.56-18.31
						c-3.44-6.65-6.52-13.48-9.23-20.45c-5.43-13.94-9.28-28.49-11.6-43.27c-0.56-3.65-1.03-7.54-1.41-11.01l-1.15-10.18
						l-2.31-20.35c-1.47-13.58-3.4-27.09-5.08-40.63c-7.19-54.11-15.95-107.97-27.03-161.3c-10.93-53.39-26.41-105.54-41.13-157.71
						c-14.51-52.35-31.59-103.67-48.9-155.93l-0.04-0.12c-0.99-2.99,0.63-6.21,3.62-7.2
						C2359.11,1384.37,2361.8,1385.39,2363.17,1387.53z"/>
				</g>
			</g>
			<g>
				<g>
					<path class="st8" d="M2375.39,2431.42l39.82-87.18c1.31-2.86,4.69-4.13,7.56-2.82c2.45,1.12,3.72,3.75,3.23,6.27l-18.24,94.09
						c-1.8,9.28-10.78,15.34-20.06,13.54c-9.28-1.8-15.34-10.78-13.54-20.06C2374.41,2433.95,2374.86,2432.6,2375.39,2431.42z"/>
				</g>
			</g>
			<g>
				<g>
					<path class="st8" d="M2597.13,2665.54c-13.79-5.26-30.31-7.61-47-8.34c-16.78-0.75-33.98,0.1-51.2,1.63l-0.05,0
						c-3.13,0.28-5.9-2.04-6.18-5.17c-0.24-2.71,1.47-5.15,3.96-5.94c16.84-5.3,34.01-10.02,51.92-13.14
						c17.9-3.05,36.55-4.86,56.65-2.07l0.35,0.05c9.37,1.3,15.9,9.95,14.6,19.32c-1.3,9.37-9.95,15.91-19.32,14.6
						C2599.59,2666.32,2598.28,2665.97,2597.13,2665.54z"/>
				</g>
			</g>
			<g>
				<g>
					<path class="st5" d="M2330.34,1642.18l115.25-16.99c13.07-1.93,25.5,6.26,28.91,19.02l14.08,52.8
						c3.57,13.4-4,27.25-17.22,31.46l-116.24,37.06"/>
				</g>
			</g>
			<g class="st7">
				<g>
					<path class="st8" d="M2471.34,1728.5l-116.24,37.05l-9.69-48.38l106.1-33.82c13.26-4.19,20.79-18.07,17.22-31.44l-6.23-23.45
						c5.78,3.4,10.2,8.89,12.01,15.75l14.05,52.8C2492.13,1710.43,2484.59,1724.25,2471.34,1728.5z"/>
				</g>
			</g>
			<g class="st7">
				<g>
					<path class="st8" d="M2471.79,1781.86c-0.17,0.06-0.28,0.11-0.45,0.17l-116.24,37.05l-9.69-48.38l106.1-33.82
						c3.34-1.08,6.29-2.72,8.84-4.87l2.78-0.91C2465.62,1746.85,2468.84,1766.68,2471.79,1781.86z"/>
				</g>
			</g>
			<g>
				<g>
					<path class="st5" d="M1863.21,1714.82l-161.24,46.6c-8.1,2.34-13.13,10.42-11.66,18.72l13.45,75.82
						c1.58,8.89,10.02,14.86,18.93,13.39l161.29-26.74"/>
				</g>
			</g>
			<g class="st7">
				<g>
					<path class="st8" d="M1883.95,1842.59l-161.28,26.74c-8.89,1.47-17.33-4.47-18.92-13.37l-6.97-39.37
						c3.29,1.98,7.25,2.89,11.33,2.21l161.33-26.74l-12.29-75.51l6.06-1.76L1883.95,1842.59z"/>
				</g>
			</g>
			<g class="st7">
				<g>
					<path class="st8" d="M1892.55,1900.65l-161.28,26.74c-8.89,1.47-17.33-4.47-18.92-13.37l-6.97-39.37
						c3.29,1.98,7.25,2.89,11.33,2.21l161.33-26.74l-12.29-75.51l6.06-1.76L1892.55,1900.65z"/>
				</g>
			</g>
			<g>
				<g>
					<path class="st8" d="M2355.11,1782.53c-7.2,0-13.88-4.61-16.19-11.84c-2.85-8.94,2.09-18.5,11.03-21.35l116.24-37.06
						c4.58-1.46,7.2-6.25,5.96-10.9l-14.08-52.8c-1.18-4.42-5.51-7.23-10.01-6.59L2332.82,1659c-9.31,1.39-17.92-5.05-19.29-14.34
						c-1.37-9.29,5.05-17.92,14.34-19.29l115.25-16.99c21.62-3.17,42.17,10.34,47.81,31.45l14.08,52.8
						c5.92,22.2-6.59,45.05-28.48,52.03l-116.24,37.06C2358.56,1782.28,2356.82,1782.53,2355.11,1782.53z"/>
				</g>
			</g>
			<g>
				<g>
					<path class="st8" d="M1961.09,1935.75c-19.3,0-38.06-5.98-54.09-17.44c-20.39-14.58-33.83-36.23-37.85-60.97l-24.62-151.54
						c-8.18-50.32,26.04-98.31,76.28-106.98l314.64-54.29c50.2-8.66,97.38,23.67,107.41,73.62l30.39,151.34
						c5.01,24.96-0.17,50.27-14.59,71.26c-14.42,20.99-36.19,34.89-61.3,39.17l-320.4,54.49
						C1971.66,1935.3,1966.35,1935.75,1961.09,1935.75z M2251.57,1577.13c-3.41,0-6.86,0.29-10.35,0.89l-314.64,54.29
						c-31.94,5.52-53.7,36.04-48.5,68.03l0,0l24.62,151.54c2.55,15.74,11.11,29.5,24.07,38.78c12.97,9.26,28.77,12.92,44.49,10.23
						l320.4-54.49c15.97-2.71,29.81-11.56,38.98-24.9c9.17-13.34,12.47-29.44,9.28-45.31l-30.39-151.34
						C2303.84,1596.54,2279.41,1577.13,2251.57,1577.13z"/>
				</g>
			</g>
			<g class="st7">
				<g>
					<path class="st8" d="M2294.54,1863.15l-320.4,54.5c-41.81,7.08-81.4-21.19-88.2-63.05l-14.56-89.5
						c11.78,35.01,47.53,57.22,85.14,50.87l320.4-54.49c35.46-6.06,60.9-35.46,63.39-69.56l16.26,80.95
						C2365.06,1815.06,2336.97,1855.96,2294.54,1863.15z"/>
				</g>
			</g>
			<g class="st7">
				<g>
					<path class="st8" d="M2308.42,1921.78l-320.4,54.5c-41.81,7.08-81.4-21.19-88.2-63.05l-5.61-34.44
						c15.13,27.93,46.85,44.47,79.93,38.86l320.4-54.5c42.43-7.19,70.53-48.09,62.03-90.3l-3.17-15.75c0.4-2.15,0.62-4.36,0.79-6.57
						l16.26,80.95C2378.94,1873.69,2350.85,1914.59,2308.42,1921.78z"/>
				</g>
			</g>
			<g>
				<g>
					<path class="st8" d="M1720.03,1886.56c-15.93,0-30.14-11.49-33-27.64l-13.45-75.82c-3-16.9,7.17-33.24,23.67-38.01l161.24-46.6
						c9.02-2.59,18.44,2.59,21.04,11.61c2.6,9.02-2.59,18.44-11.61,21.04l-160.8,46.47l13.28,74.88l160.79-26.65
						c9.28-1.56,18.01,4.73,19.55,13.99c1.53,9.26-4.73,18.01-13.99,19.55l-161.28,26.74
						C1723.64,1886.41,1721.82,1886.56,1720.03,1886.56z"/>
				</g>
			</g>
			<g>
				<g>
					<path class="st8" d="M2620.74,2776.44c-93.59,0-219.76-49.21-273.14-95.46c-5.91-5.12-6.55-14.06-1.43-19.97
						c5.13-5.92,14.07-6.55,19.97-1.43c60.24,52.2,231.22,110.48,306.89,80.38c7.27-2.91,15.5,0.66,18.39,7.92
						c2.89,7.27-0.66,15.5-7.92,18.39C2665.76,2773.33,2644.28,2776.44,2620.74,2776.44z"/>
				</g>
			</g>
			<g>
				<g>
					<path class="st8" d="M2625.59,2525.92c-3.42,0-6.85-1.23-9.57-3.73c-87.59-80.42-224.41-30.12-225.78-29.59
						c-7.32,2.77-15.49-0.93-18.25-8.25c-2.76-7.32,0.94-15.49,8.25-18.25c6.27-2.37,154.65-56.85,254.94,35.23
						c5.76,5.29,6.14,14.25,0.85,20.01C2633.23,2524.38,2629.42,2525.92,2625.59,2525.92z"/>
				</g>
			</g>
			<g>
				<g>
					<path class="st8" d="M1611.07,2490.1c3.18-0.88,5.41-1.33,7.98-1.81c2.5-0.5,4.96-0.84,7.42-1.24
						c4.91-0.67,9.79-1.2,14.67-1.53c9.74-0.67,19.43-0.72,29.05-0.03c9.6,0.66,19.12,1.84,28.44,3.84
						c9.34,1.79,18.43,4.62,27.31,7.64c2.97,1.01,4.56,4.24,3.55,7.21c-0.88,2.59-3.44,4.12-6.05,3.81l-0.28-0.03
						c-8.8-1.05-17.54-1.88-26.29-1.72c-8.72-0.05-17.4,0.7-25.93,1.9c-8.54,1.16-16.94,3-25.1,5.32
						c-4.08,1.15-8.09,2.47-12.01,3.87c-1.93,0.75-3.89,1.45-5.74,2.26c-1.79,0.73-3.89,1.68-4.99,2.31
						c-8.24,4.72-18.74,1.86-23.46-6.38c-4.72-8.24-1.86-18.74,6.38-23.46c1.24-0.71,2.53-1.25,3.84-1.62L1611.07,2490.1z"/>
				</g>
			</g>
			<g>
				<g>
					<path class="st8" d="M1565.97,2665.31c-5.37,0-10.51-3.08-12.89-8.28c-3.25-7.11-0.12-15.51,7-18.77l303.58-138.76
						c7.12-3.26,15.51-0.12,18.77,7c3.25,7.11,0.12,15.51-7,18.77l-303.58,138.76C1569.94,2664.9,1567.94,2665.31,1565.97,2665.31z"
						/>
				</g>
			</g>
			<g>
				<g>
					<path class="st8" d="M1556.32,2375.35c-3,0-6.03-0.95-8.6-2.92c-6.21-4.76-7.39-13.65-2.63-19.86
						c51.68-67.5,166.38-103.2,236-73.44c7.19,3.08,10.53,11.4,7.46,18.59c-3.08,7.2-11.41,10.52-18.59,7.46
						c-51.85-22.16-155.43,3.3-202.38,64.62C1564.79,2373.43,1560.58,2375.35,1556.32,2375.35z"/>
				</g>
			</g>
			<g>
				<g>
					<path class="st8" d="M1754.66,2265.76l-29.52-84.38c-1.04-2.98,0.53-6.23,3.51-7.28c2.51-0.88,5.22,0.1,6.63,2.21l49.79,74.24
						c5.27,7.86,3.17,18.5-4.69,23.77c-7.86,5.27-18.5,3.17-23.77-4.69C1755.79,2268.44,1755.13,2267.08,1754.66,2265.76z"/>
				</g>
			</g>
			<g>
				<g>
					<path class="st8" d="M2016.98,2240.09l-51.45-50.98c-2.25-2.23-2.27-5.86-0.04-8.11c1.79-1.81,4.5-2.17,6.65-1.09l64.68,32.58
						c8.49,4.27,11.9,14.62,7.63,23.11c-4.28,8.49-14.62,11.9-23.11,7.63C2019.71,2242.41,2018.22,2241.31,2016.98,2240.09z"/>
				</g>
			</g>
			<g>
				<g>
					<path class="st8" d="M2208.43,2215.7c14.59,2.67,31.54,0.82,48.23-3.5c16.77-4.33,33.49-10.91,49.89-18.39l0.04-0.02
						c2.86-1.3,6.24-0.04,7.54,2.82c1.14,2.5,0.32,5.39-1.81,6.95c-14.88,10.95-30.45,21.29-47.67,29.85
						c-17.18,8.42-36.31,15.38-58.15,16.24l-0.49,0.02c-9.45,0.37-17.41-6.99-17.78-16.44c-0.37-9.45,6.99-17.41,16.44-17.78
						C2205.93,2215.39,2207.25,2215.49,2208.43,2215.7z"/>
				</g>
			</g>
			<g>
				<g>
					<path class="st8" d="M2414.55,1547.6c-5.83,0-11.51-3.01-14.68-8.4c-4.75-8.1-2.03-18.51,6.06-23.26l507.1-297.3
						c36.3-21.27,61.82-55.74,70.04-94.57c6.67-31.54,1.32-58.24-14.35-71.45c-16.43-13.84-45.14-13.65-80.86,0.56
						c-7.66,3.06-16.42,0.16-20.74-6.86c-12.91-20.93-25.58-32.4-35.75-32.4c-0.15,0-0.31,0-0.46,0.01
						c-12.94,0.45-30.02,19.11-46.86,51.19c-1.67,3.17-4.29,5.73-7.5,7.33L2402.13,1258c-8.42,4.17-18.61,0.73-22.78-7.68
						c-4.17-8.41-0.73-18.6,7.68-22.78l369.54-183.14c23.19-42.45,47.15-63.55,73.14-64.45c21-0.6,40.26,11.36,58.6,36.89
						c53.43-17.66,84.95-4.84,102.31,9.79c25.78,21.73,35.14,59.81,25.69,104.47c-10.19,48.16-41.58,90.75-86.1,116.85l-507.1,297.3
						C2420.43,1546.84,2417.47,1547.6,2414.55,1547.6z"/>
				</g>
			</g>
			<g>
				<g>
					<path class="st8" d="M2687.26,1384.86c-2.13,0-4.29-0.48-6.33-1.5c-133.14-66.63-126.1-218.41-125.74-224.84
						c0.44-7.81,7.01-13.76,14.94-13.33c7.8,0.44,13.77,7.12,13.33,14.93c-0.31,5.8-6.06,139.77,110.14,197.92
						c7,3.5,9.82,12.01,6.32,19C2697.45,1382,2692.45,1384.86,2687.26,1384.86z"/>
				</g>
			</g>
			<g>
				<g>
					<path class="st8" d="M1690.04,1567.21c-2.2,0-4.44-0.51-6.53-1.6c-65.06-33.89-99.18-137.03-73.01-220.74
						c2.33-7.47,10.29-11.62,17.74-9.29c7.46,2.33,11.62,10.28,9.29,17.74c-24.06,76.98,11.33,162.31,59.06,187.16
						c6.94,3.61,9.63,12.17,6.02,19.1C1700.09,1564.43,1695.15,1567.21,1690.04,1567.21z"/>
				</g>
			</g>
			<g>
				<g>
					<path class="st8" d="M1673.2,1658.94l3.24-62.83c0.16-3.18,2.87-5.62,6.05-5.46c2.45,0.13,4.47,1.78,5.19,3.99l19.23,59.9
						c2.92,9.09-2.08,18.82-11.17,21.73c-9.08,2.92-18.81-2.08-21.73-11.17C1673.35,1663.08,1673.11,1660.95,1673.2,1658.94z"/>
				</g>
			</g>
			<g>
				<g>
					<path class="st8" d="M1665.45,1994.34c-8.15,0-15.35-5.88-16.74-14.18l-53.89-320.6c-1.55-9.25,4.69-18.02,13.95-19.58
						c9.21-1.55,18.02,4.68,19.58,13.95l53.89,320.6c1.55,9.25-4.69,18.02-13.95,19.58
						C1667.34,1994.26,1666.39,1994.34,1665.45,1994.34z"/>
				</g>
			</g>
			<g>
				<g>
					<path class="st8" d="M2529.71,2048.88c-4.78,0-9.53-2-12.89-5.91c-6.12-7.11-5.32-17.85,1.79-23.97l17.03-14.66
						c12.85-11.06,19.76-27.09,18.95-43.98c-6.74-140.75-34.17-298.6-81.52-469.16c-2.51-9.04,2.79-18.41,11.83-20.92
						c9.03-2.5,18.41,2.79,20.92,11.83c48.7,175.42,75.75,331.33,82.71,476.62c1.32,27.41-9.88,53.43-30.73,71.37l-17.03,14.66
						C2537.58,2047.53,2533.64,2048.88,2529.71,2048.88z"/>
				</g>
			</g>
			<g>
				<g>
					<path class="st8" d="M1461.36,1431.66c-3.49,0-7-1.07-10.03-3.29c-181.01-132.61-98.51-276.3-97.66-277.74
						c4.81-8.06,15.24-10.7,23.3-5.92c8.05,4.79,10.7,15.19,5.95,23.24c-2.93,5.05-66.68,119.3,88.5,232.99
						c7.57,5.55,9.21,16.18,3.67,23.75C1471.76,1429.25,1466.6,1431.66,1461.36,1431.66z"/>
				</g>
			</g>
			<g>
				<g>
					<path class="st5" d="M2559.16,852.34c29.6,96.46,11.94,188.83-60.01,210.91c-71.94,22.08-136.98-44.59-166.59-141.04
						c-29.6-96.46-12.56-186.18,59.38-208.26C2463.89,691.87,2529.56,755.88,2559.16,852.34z"/>
				</g>
			</g>
			<g class="st7">
				<g>
					<path class="st8" d="M2499.15,1063.22c-71.15,21.87-135.56-43.11-165.58-137.83c30.14,29.91,66.62,43.39,105.03,31.61
						c71.94-22.04,89.62-114.43,60.05-210.9c-0.11-0.4-0.23-0.74-0.34-1.13c26,25.43,47.24,62.94,60.84,107.35
						C2588.77,948.79,2571.09,1041.19,2499.15,1063.22z"/>
				</g>
			</g>
			<g>
				<g>
					<path class="st8" d="M2471.79,1084.42c-29.03,0-57.72-11.78-83.15-34.59c-30.85-27.67-56.53-71.22-72.31-122.65
						c-15.75-51.3-18.8-101.46-8.6-141.23c11.48-44.75,39.62-76.1,79.25-88.26c39.65-12.16,80.71-2.16,115.62,28.16
						c31.25,27.17,57.12,70.31,72.83,121.49v0c15.75,51.31,18.69,101.94,8.29,142.55c-11.68,45.61-39.94,77.43-79.56,89.6
						C2493.41,1082.79,2482.57,1084.42,2471.79,1084.42z M2420.25,726.62c-7.39,0-15.18,1.08-23.31,3.58
						c-28.68,8.8-47.63,30.41-56.29,64.21c-8.67,33.79-5.76,77.4,8.17,122.81c13.99,45.59,36.19,83.71,62.51,107.31
						c18.16,16.28,47.26,33.42,82.84,22.47c35.72-10.96,50.5-41.69,56.61-65.53c8.87-34.64,6.08-78.72-7.86-124.14v-0.01
						c-13.86-45.18-36.1-82.75-62.63-105.81C2466.21,739.28,2445.53,726.62,2420.25,726.62z"/>
				</g>
			</g>
			<g>
				<g>
					<path class="st8" d="M2508.79,1036.71c-22.68,0-45.62-11.6-66.23-33.87c-22.87-24.71-42.9-62.53-56.39-106.49
						c-20.02-65.23-20.23-122.88-0.57-158.16c9.72-17.45,24.38-29.16,42.4-33.88c42.23-11.01,114.94,46.87,142.07,135.31
						c13.46,43.86,17.95,86.53,12.63,120.14c-6.15,38.86-25.4,65.13-54.21,73.96C2521.99,1035.73,2515.4,1036.71,2508.79,1036.71z
						 M2439.64,731.18c-1.61,0-3.11,0.18-4.46,0.53c-10.67,2.8-18.8,9.43-24.84,20.27c-15.45,27.73-14.34,79.87,2.9,136.06
						c12.27,39.97,30.06,73.91,50.1,95.56c13.31,14.38,33.97,30.06,56.84,23.06c22.96-7.04,31.46-31.8,34.55-51.32
						c4.66-29.44,0.49-67.58-11.73-107.4C2520.7,775.28,2465.18,731.18,2439.64,731.18z"/>
				</g>
			</g>
			<g class="st7">
				<g>
					<path class="st8" d="M2571.55,1959.57c1.08,22.04-8.1,43.28-24.81,57.67l-14.05,12.07c-17.39-23.23-22.89-55.8-22.89-55.8
						l-24.76-96.3c26.17,5.21,52.23-3.8,78.4-26.91C2567.19,1887.23,2569.85,1923.65,2571.55,1959.57z"/>
				</g>
			</g>
			<g class="st7">
				<g>
					<polyline class="st8" points="1705.38,1869.57 1649.64,1883.13 1665.47,1958.87 1729.1,1939.8 					"/>
				</g>
			</g>
			<g class="st7">
				<g>
					<path class="st8" d="M1885.08,1493.58c-7.36-1.47-12.24-2.61-13.71-3c-11.78-3.17-153.01,55.57-232.82,73.13
						c-79.87,17.5-105.65-68.43-105.65-68.43l327.37-70.81c152.78-8.5,119.19-113.3,119.19-113.3l43.56,2.21
						C2114.28,1348.45,2063.7,1482.25,1885.08,1493.58z"/>
				</g>
			</g>
			<g class="st7">
				<g>
					<path class="st8" d="M2271.2,2218.51c-17.5,8.1-34.67,18.07-50.7,28.61l-13.03-14.45l-194.36-1.42l-243.25,26.91l63.28,176.57
						c48.72,77.16,52.29,128.54,15.07,156.69l-182.18,87.8c-75.17,24.53-107.07-14.79-106.73-63.9c3.85-1.3,6.68-1.7,6.68-1.7
						c83.67,68.49,225.12-76.48,189.72-158.62c0,0-48.15-107.63-84.92-196.85c-36.71-89.22,11.27-99.98,11.27-99.98l271.91-35.01
						c0,0,140.2,28.78,228.46,34.44c88.31,5.66,147.91-34.44,147.91-34.44S2347.67,2183.1,2271.2,2218.51z"/>
				</g>
			</g>
			<g class="st7">
				<g>
					<path class="st8" d="M2679.29,2738.31c0.28,14.05-3.06,29-9.8,44.81c-7.14,16.71-23.51,27.93-41.69,27.98
						c-78.74,0.28-147.12-12.52-204.27-39.54c4.36,0.28,8.67,0.68,12.92,1.13c156.69,16.99,81.12-127.4,81.12-127.4
						s14.22-214.36,31.89-323.29c17.73-108.93-44.07-327.26-44.07-327.26l8.78,7.19c0.68,1.36,1.36,2.72,2.04,4.08l111.82,214.13
						c23.91,45.77,31.95,98.17,22.94,149.04l-49.79,279.84C2653.86,2672.21,2678.56,2702.29,2679.29,2738.31z"/>
				</g>
			</g>
			<g>
				<g>
					<g>
						<path class="st16" d="M2223.03,1629.95c22.66-2.77,43.28,13.36,46.05,36.01c2.77,22.65-13.36,43.27-36.02,46.04
							c-22.65,2.77-43.27-13.36-46.04-36.01C2184.25,1653.34,2200.38,1632.72,2223.03,1629.95z"/>
					</g>
				</g>
				<g class="st7">
					<g>
						<path class="st17" d="M2230.08,1687.59c-19.03,2.33-36.58-8.71-43.36-25.72c-0.47,3.45-0.56,7.01-0.12,10.63
							c2.77,22.65,23.39,38.78,46.04,36.01c22.66-2.77,38.79-23.39,36.02-46.04c-0.44-3.62-1.39-7.05-2.68-10.29
							C2263.49,1670.33,2249.11,1685.27,2230.08,1687.59z"/>
					</g>
				</g>
				<g class="st18">
					<g>
						<path class="st19" d="M2225.16,1647.38c19.67-2.4,37.77,9.44,44.03,27.41c0.27-2.89,0.25-5.84-0.12-8.83
							c-2.77-22.65-23.39-38.78-46.05-36.01c-22.65,2.77-38.78,23.39-36.01,46.04c0.37,2.99,1.06,5.86,2.02,8.6
							C2190.78,1665.64,2205.5,1649.79,2225.16,1647.38z"/>
					</g>
				</g>
				<g>
					<g>
						<path class="st8" d="M2227.94,1722.85c-11.52,0-22.63-3.81-31.85-11.02c-10.91-8.54-17.85-20.81-19.53-34.56
							c-3.47-28.39,16.81-54.31,45.19-57.78c0,0,0,0,0,0c28.39-3.51,54.31,16.81,57.79,45.19c3.47,28.39-16.81,54.31-45.21,57.78
							C2232.19,1722.72,2230.06,1722.85,2227.94,1722.85z M2224.31,1640.41c-16.85,2.06-28.89,17.45-26.83,34.3
							c1,8.16,5.12,15.44,11.59,20.52c6.48,5.07,14.58,7.31,22.7,6.31c16.86-2.06,28.9-17.45,26.84-34.3
							C2256.56,1650.39,2241.23,1638.41,2224.31,1640.41L2224.31,1640.41z"/>
					</g>
				</g>
			</g>
		</g>
	</g>
</g>
</svg>
